<svg width="54" height="46" viewBox="0 0 54 46" fill="none" xmlns="http://www.w3.org/2000/svg">
<path d="M41.61 33.366L48.851 29.67V29.571L28.525 19.22V13.679L53.296 27.11V32.235L28.468 45.717V40.074L36.598 35.928" fill="#85261D"/>
<path d="M11.931 19.687L4.686 15.993V15.892L25.016 5.541V0L0.246002 13.43V18.554L25.073 32.04V26.393L16.943 22.248" fill="#8B251D"/>
<path d="M0.246002 13.43V18.554L25.073 32.04V26.393L0.246002 13.43Z" fill="#C65130"/>
<path d="M28.338 0.204V5.326L53.165 18.811V13.166L28.338 0.204Z" fill="#C65130"/>
<path d="M28.525 19.22V13.679L53.296 27.11V32.235" fill="#BB5030"/>
<path d="M0 32.382V26.839L24.774 40.273V45.396" fill="#BB5030"/>
</svg>
